<svg width="512" height="512" viewBox="0 0 512 512" fill="none" xmlns="http://www.w3.org/2000/svg">
<rect width="512" height="512" fill="black"/>
<g transform="translate(64, 48)">
  <rect x="4" y="4" width="376" height="424" rx="28" fill="#1C1C1C"/>
  <rect x="4" y="4" width="376" height="424" rx="28" stroke="url(#gold-gradient)" stroke-width="2"/>

  <rect x="28" y="28" width="328" height="80" rx="12" fill="url(#gold-gradient-lcd)"/>
  <rect x="28" y="28" width="328" height="80" rx="12" stroke="black" stroke-opacity="0.2" stroke-width="1"/>
  <text x="192" y="82" font-family="Arial, sans-serif" font-size="48" fill="#1C1C1C" text-anchor="middle" font-weight="bold">TPSA</text>

  <g id="keys">
    <rect x="28" y="132" width="70" height="50" rx="8" fill="url(#gold-gradient-key)"/>
    <text x="63" y="167" font-family="Arial, sans-serif" font-size="28" fill="#1C1C1C" text-anchor="middle" font-weight="bold">7</text>

    <rect x="110" y="132" width="70" height="50" rx="8" fill="url(#gold-gradient-key)"/>
    <text x="145" y="167" font-family="Arial, sans-serif" font-size="28" fill="#1C1C1C" text-anchor="middle" font-weight="bold">8</text>

    <rect x="192" y="132" width="70" height="50" rx="8" fill="url(#gold-gradient-key)"/>
    <text x="227" y="167" font-family="Arial, sans-serif" font-size="28" fill="#1C1C1C" text-anchor="middle" font-weight="bold">9</text>
    
    <rect x="286" y="132" width="70" height="50" rx="8" fill="url(#gold-gradient-key)"/>
    <text x="321" y="167" font-family="Arial, sans-serif" font-size="32" fill="#1C1C1C" text-anchor="middle" dominant-baseline="middle" font-weight="bold">รท</text>

    <rect x="28" y="194" width="70" height="50" rx="8" fill="url(#gold-gradient-key)"/>
    <text x="63" y="229" font-family="Arial, sans-serif" font-size="28" fill="#1C1C1C" text-anchor="middle" font-weight="bold">4</text>

    <rect x="110" y="194" width="70" height="50" rx="8" fill="url(#gold-gradient-key)"/>
    <text x="145" y="229" font-family="Arial, sans-serif" font-size="28" fill="#1C1C1C" text-anchor="middle" font-weight="bold">5</text>

    <rect x="192" y="194" width="70" height="50" rx="8" fill="url(#gold-gradient-key)"/>
    <text x="227" y="229" font-family="Arial, sans-serif" font-size="28" fill="#1C1C1C" text-anchor="middle" font-weight="bold">6</text>

    <rect x="286" y="194" width="70" height="50" rx="8" fill="url(#gold-gradient-key)"/>
    <text x="321" y="229" font-family="Arial, sans-serif" font-size="32" fill="#1C1C1C" text-anchor="middle" dominant-baseline="middle" font-weight="bold">ร</text>

    <rect x="28" y="256" width="70" height="50" rx="8" fill="url(#gold-gradient-key)"/>
    <text x="63" y="291" font-family="Arial, sans-serif" font-size="28" fill="#1C1C1C" text-anchor="middle" font-weight="bold">1</text>

    <rect x="110" y="256" width="70" height="50" rx="8" fill="url(#gold-gradient-key)"/>
    <text x="145" y="291" font-family="Arial, sans-serif" font-size="28" fill="#1C1C1C" text-anchor="middle" font-weight="bold">2</text>

    <rect x="192" y="256" width="70" height="50" rx="8" fill="url(#gold-gradient-key)"/>
    <text x="227" y="291" font-family="Arial, sans-serif" font-size="28" fill="#1C1C1C" text-anchor="middle" font-weight="bold">3</text>
    
    <rect x="286" y="256" width="70" height="50" rx="8" fill="url(#gold-gradient-key)"/>
    <text x="321" y="291" font-family="Arial, sans-serif" font-size="32" fill="#1C1C1C" text-anchor="middle" dominant-baseline="middle" font-weight="bold">-</text>

    <rect x="28" y="318" width="70" height="50" rx="8" fill="url(#gold-gradient-key)"/>
    <text x="63" y="353" font-family="Arial, sans-serif" font-size="28" fill="#1C1C1C" text-anchor="middle" font-weight="bold">0</text>

    <rect x="110" y="318" width="70" height="50" rx="8" fill="url(#gold-gradient-key)"/>
    <text x="145" y="353" font-family="Arial, sans-serif" font-size="32" fill="#1C1C1C" text-anchor="middle" font-weight="bold">.</text>

    <rect x="192" y="318" width="70" height="50" rx="8" fill="url(#gold-gradient-key)"/>
    <text x="227" y="353" font-family="Arial, sans-serif" font-size="28" fill="#1C1C1C" text-anchor="middle" dominant-baseline="middle" font-weight="bold">=</text>
    
    <rect x="286" y="318" width="70" height="112" rx="8" fill="url(#gold-gradient-key)"/>
    <text x="321" y="374" font-family="Arial, sans-serif" font-size="32" fill="#1C1C1C" text-anchor="middle" dominant-baseline="middle" font-weight="bold">+</text>
  </g>
</g>
<defs>
  <linearGradient id="gold-gradient" x1="0%" y1="0%" x2="0%" y2="100%">
    <stop offset="0%" style="stop-color:#FDEEBE;stop-opacity:1" />
    <stop offset="100%" style="stop-color:#D5A135;stop-opacity:1" />
  </linearGradient>
  <linearGradient id="gold-gradient-lcd" x1="0%" y1="0%" x2="0%" y2="100%">
    <stop offset="0%" style="stop-color:#FEF4D5;stop-opacity:1" />
    <stop offset="100%" style="stop-color:#F5D58C;stop-opacity:1" />
  </linearGradient>
  <linearGradient id="gold-gradient-key" x1="0%" y1="0%" x2="0%" y2="100%">
    <stop offset="0%" style="stop-color:#F9E09B;stop-opacity:1" />
    <stop offset="100%" style="stop-color:#E8B653;stop-opacity:1" />
  </linearGradient>
</defs>
</svg>