<svg width="512" height="512" viewBox="0 0 512 512" fill="none" xmlns="http://www.w3.org/2000/svg">
<rect width="512" height="512" rx="64" fill="#09090B"/>
<rect x="106" y="80" width="300" height="352" rx="24" fill="#18181B"/>
<rect x="122" y="96" width="268" height="100" rx="12" fill="#A1A1AA"/>
<g>
<rect x="122" y="212" width="60" height="40" rx="8" fill="#FBBF24"/>
<rect x="190" y="212" width="60" height="40" rx="8" fill="#FBBF24"/>
<rect x="258" y="212" width="60" height="40" rx="8" fill="#FBBF24"/>
<rect x="326" y="212" width="64" height="152" rx="8" fill="#FBBF24"/>
</g>
<g>
<rect x="122" y="260" width="60" height="40" rx="8" fill="#FBBF24"/>
<rect x="190" y="260" width="60" height="40" rx="8" fill="#FBBF24"/>
<rect x="258" y="260" width="60" height="40" rx="8" fill="#FBBF24"/>
</g>
<g>
<rect x="122" y="308" width="60" height="40" rx="8" fill="#FBBF24"/>
<rect x="190" y="308" width="60" height="40" rx="8" fill="#FBBF24"/>
<rect x="258" y="308" width="60" height="40" rx="8" fill="#FBBF24"/>
</g>
<g>
<rect x="122" y="356" width="128" height="40" rx="8" fill="#FBBF24"/>
<rect x="258" y="356" width="60" height="40" rx="8" fill="#FBBF24"/>
</g>
</svg>
