
<svg width="512" height="512" viewBox="0 0 512 512" fill="none" xmlns="http://www.w3.org/2000/svg">
<rect width="512" height="512" rx="60" fill="#09090B"/>
<rect x="64" y="64" width="384" height="128" rx="16" fill="#1E1E1E"/>
<g filter="url(#filter0_d_101_2)">
<rect x="80" y="80" width="352" height="96" rx="8" fill="#D4AF37"/>
<text x="256" y="140" font-family="monospace" font-size="64" fill="#09090B" text-anchor="middle" dominant-baseline="middle">0.00</text>
</g>
<rect x="64" y="224" width="80" height="56" rx="8" fill="#333333"/>
<rect x="160" y="224" width="80" height="56" rx="8" fill="#333333"/>
<rect x="256" y="224" width="80" height="56" rx="8" fill="#333333"/>
<rect x="352" y="224" width="96" height="56" rx="8" fill="#D4AF37"/>
<rect x="64" y="296" width="80" height="56" rx="8" fill="#333333"/>
<rect x="160" y="296" width="80" height="56" rx="8" fill="#333333"/>
<rect x="256" y="296" width="80" height="56" rx="8" fill="#333333"/>
<rect x="352" y="296" width="96" height="128" rx="8" fill="#D4AF37"/>
<rect x="64" y="368" width="80" height="56" rx="8" fill="#333333"/>
<rect x="160" y="368" width="80" height="56" rx="8" fill="#333333"/>
<rect x="256" y="368" width="80" height="56" rx="8" fill="#333333"/>
<rect x="64" y="440" width="176" height="56" rx="8" fill="#333333"/>
<rect x="256" y="440" width="80" height="56" rx="8" fill="#333333"/>
<rect x="352" y="440" width="96" height="56" rx="8" fill="#D4AF37"/>
<text x="104" y="252" font-family="sans-serif" font-size="24" fill="white">7</text>
<text x="200" y="252" font-family="sans-serif" font-size="24" fill="white">8</text>
<text x="296" y="252" font-family="sans-serif" font-size="24" fill="white">9</text>
<text x="400" y="252" font-family="sans-serif" font-size="24" fill="#09090B">/</text>
<text x="104" y="324" font-family="sans-serif" font-size="24" fill="white">4</text>
<text x="200" y="324" font-family="sans-serif" font-size="24" fill="white">5</text>
<text x="296" y="324" font-family="sans-serif" font-size="24" fill="white">6</text>
<text x="400" y="360" font-family="sans-serif" font-size="24" fill="#09090B">+</text>
<text x="104" y="396" font-family="sans-serif" font-size="24" fill="white">1</text>
<text x="200" y="396" font-family="sans-serif" font-size="24" fill="white">2</text>
<text x="296" y="396" font-family="sans-serif" font-size="24" fill="white">3</text>
<text x="152" y="468" font-family="sans-serif" font-size="24" fill="white">0</text>
<text x="296" y="468" font-family="sans-serif" font-size="24" fill="white">.</text>
<text x="400" y="468" font-family="sans-serif" font-size="24" fill="#09090B">=</text>
<defs>
<filter id="filter0_d_101_2" x="76" y="76" width="360" height="104" filterUnits="userSpaceOnUse" color-interpolation-filters="sRGB">
<feFlood flood-opacity="0" result="BackgroundImageFix"/>
<feColorMatrix in="SourceAlpha" type="matrix" values="0 0 0 0 0 0 0 0 0 0 0 0 0 0 0 0 0 0 127 0" result="hardAlpha"/>
<feOffset dy="4"/>
<feGaussianBlur stdDeviation="2"/>
<feComposite in2="hardAlpha" operator="out"/>
<feColorMatrix type="matrix" values="0 0 0 0 0 0 0 0 0 0 0 0 0 0 0 0 0 0 0.25 0"/>
<feBlend mode="normal" in2="BackgroundImageFix" result="effect1_dropShadow_101_2"/>
<feBlend mode="normal" in="SourceGraphic" in2="effect1_dropShadow_101_2" result="shape"/>
</filter>
</defs>
</svg>
