<svg width="512" height="512" viewBox="0 0 512 512" fill="none" xmlns="http://www.w3.org/2000/svg">
<rect width="512" height="512" rx="64" fill="#1A1A1A"/>
<rect x="64" y="96" width="384" height="128" rx="16" fill="#D4AF37"/>
<rect x="80" y="112" width="352" height="96" rx="8" fill="#111111"/>
<path d="M104 128H152V144H104V128ZM168 128H216V144H168V128ZM232 128H280V144H232V128ZM296 128H344V144H296V128ZM360 128H408V144H360V128ZM104 160H152V176H104V160ZM168 160H216V176H168V160ZM232 160H280V176H232V160ZM296 160H344V176H296V160ZM360 160H408V176H360V160Z" fill="#D4AF37"/>
<path d="M128 256H192V304H128V256ZM224 256H288V304H224V256ZM320 256H384V304H320V256ZM128 320H192V368H128V320ZM224 320H288V368H224V320ZM320 320H384V368H320V320ZM128 384H192V432H128V384ZM224 384H384V432H224V384Z" fill="#D4AF37"/>
</svg>
