<svg width="48" height="48" viewBox="0 0 48 48" fill="none" xmlns="http://www.w3.org/2000/svg">
<rect width="48" height="48" rx="12" fill="#F0F4FF"/>
<path d="M29.697 12.8335L22.6953 28.3672H18.9062L16.2988 23.0158L13.7227 28.3672H10.5371L16.3105 16.4824H18.8945L21.0312 20.8066L23.1367 16.4824H25.0742L22.1816 22.3887L29.697 12.8335Z" fill="#4285F4"/>
<path d="M28.0943 32.7554L27.1802 30.8843H22.3169L21.3911 32.7554H17.9204L24.2388 20.9116H25.2632L31.5816 32.7554H28.0943ZM22.9907 29.3511H26.5005L24.7456 25.7534L22.9907 29.3511Z" fill="#8E43E7"/>
<path d="M36.1664 27.9177C36.1664 30.6403 34.1957 32.7554 31.6703 32.7554C29.1449 32.7554 27.1742 30.6403 27.1742 27.9177C27.1742 25.195 29.1449 23.0799 31.6703 23.0799C34.1957 23.0799 36.1664 25.195 36.1664 27.9177ZM28.7093 27.9177C28.7093 29.7423 30.016 31.1399 31.6703 31.1399C33.3246 31.1399 34.6312 29.7423 34.6312 27.9177C34.6312 26.0931 33.3246 24.6954 31.6703 24.6954C30.016 24.6954 28.7093 26.0931 28.7093 27.9177Z" fill="#8E43E7"/>
</svg>
